<?xml version="1.0" encoding="UTF-8"?>
<svg width="996px" height="387px" viewBox="0 0 996 387" version="1.1" xmlns="http://www.w3.org/2000/svg" xmlns:xlink="http://www.w3.org/1999/xlink">
    <title>Artboard</title>
    <g id="Artboard" stroke="none" stroke-width="1" fill="none" fill-rule="evenodd">
        <g id="Armor-trademarked" transform="translate(-0.000000, 0.033921)" fill="#000000" fill-rule="nonzero">
            <g id="armor-logo-orange-copy" transform="translate(-0.000000, 0.000000)">
                <path d="M468.237356,0 L468.237356,188.797308 L468.237356,189.298097 L468.237356,189.798886 L503.29256,148.233431 L521.821738,148.233431 L521.821738,235.37065 L503.29256,235.37065 L503.29256,185.291789 L503.793348,172.772073 L503.793348,172.271284 L468.237356,214.337529 L468.237356,214.838316 L468.237356,215.339105 L468.237356,384.104869 L921.951843,384.104869 L921.951843,0 L468.237356,0 Z M448.706601,215.339105 L448.706601,214.337529 L413.651398,172.271284 L413.150609,171.770496 L413.651398,185.291789 L413.651398,235.37065 L395.122219,235.37065 L395.122219,148.233431 L413.651398,148.233431 L448.706601,189.798886 L448.706601,189.298097 L448.706601,188.797308 L448.706601,0 L0,0 L0,383.60408 L448.706601,383.60408 L448.706601,215.339105 Z M217.843048,235.37065 L204.321755,210.832008 L203.320179,210.832008 L202.81939,210.832008 L198.312293,210.832008 L171.770496,210.832008 L180.78469,193.805194 L192.803618,193.805194 L195.307561,193.805194 L178.781536,163.757878 L178.781536,163.257089 L159.751569,197.310715 L138.718447,235.37065 L117.685325,235.37065 L167.764187,147.732642 L189.298097,147.732642 L239.376958,235.37065 L217.843048,235.37065 L217.843048,235.37065 Z M341.037048,235.37065 L304.980268,203.820968 L304.980268,186.794154 L333.02443,186.794154 C342.539415,186.794154 347.547301,183.288633 347.547301,175.776804 C347.547301,168.264975 342.539415,164.759455 333.02443,164.759455 L280.942415,164.759455 L280.942415,235.37065 L262.413236,235.37065 L262.413236,148.233431 L332.022854,148.233431 C360.067016,148.233431 365.575691,163.257089 365.575691,176.277593 C365.575691,198.81308 347.547301,203.820968 332.022854,203.820968 L330.520487,203.820968 L369.081211,235.871439 L341.037048,235.37065 Z M776.723145,235.37065 L740.666364,203.820968 L740.666364,186.794154 L768.710527,186.794154 C778.22551,186.794154 783.233396,183.288633 783.233396,175.776804 C783.233396,168.264975 778.22551,164.759455 768.710527,164.759455 L716.62851,164.759455 L716.62851,235.37065 L698.099332,235.37065 L698.099332,148.233431 L767.70895,148.233431 C795.753113,148.233431 801.261788,163.257089 801.261788,176.277593 C801.261788,198.81308 783.233396,203.820968 767.70895,203.820968 L766.206584,203.820968 L804.767307,235.871439 L776.723145,235.37065 Z M654.029934,224.353301 C643.513373,232.866707 628.489714,237.373804 609.960535,237.373804 C591.431356,237.373804 576.407698,232.866707 565.891137,224.353301 C556.376153,216.340683 550.867478,204.822544 550.867478,191.80204 C550.867478,178.781536 555.875366,167.263398 565.891137,159.25078 C576.407698,150.737374 591.431356,146.230276 609.960535,146.230276 C628.489714,146.230276 643.513373,150.737374 654.029934,159.25078 C663.544917,167.263398 669.053592,178.781536 669.053592,191.80204 C669.053592,204.822544 663.544917,216.340683 654.029934,224.353301 Z M609.960535,163.257089 C584.420316,163.257089 569.897446,173.77365 569.897446,191.80204 C569.897446,209.83043 584.420316,220.346991 609.960535,220.346991 C635.500755,220.346991 650.023624,209.83043 650.023624,191.80204 C650.023624,173.77365 635.500755,163.257089 609.960535,163.257089 Z" id="logo"></path>
            </g>
            <g id="Shape" transform="translate(935.280746, 321.189965)">
                <path d="M0,31.8410797 C0,26.1008761 1.32848771,20.7727169 3.98546312,15.8566019 C6.64243853,10.940487 10.3224205,7.06869127 15.0254091,4.24121476 C19.7283977,1.41373825 24.8079095,0 30.2639446,0 C35.7199796,0 40.7923872,1.41373825 45.4811674,4.24121476 C50.1699475,7.06869127 53.8428253,10.940487 56.4998007,15.8566019 C59.1567761,20.7727169 60.4852638,26.1008761 60.4852638,31.8410797 C60.4852638,37.439199 59.2065056,42.6821077 56.6489892,47.5698058 C54.0914727,52.4575039 50.4612202,56.3861333 45.7582317,59.3556941 C41.0552431,62.3252548 35.8904807,63.8100352 30.2639446,63.8100352 C24.6658252,63.8100352 19.5152713,62.3394633 14.8122827,59.3983193 C10.1092942,56.4571754 6.46483323,52.5427544 3.87889994,47.6550564 C1.29296665,42.7673583 0,37.4960327 0,31.8410797 Z M4.90190651,31.8410797 C4.90190651,36.7287778 6.03858049,41.254161 8.31192843,45.4172295 C10.5852764,49.5802979 13.6756087,52.8411314 17.5829255,55.1997299 C21.4902423,57.5583284 25.7172487,58.7376276 30.2639446,58.7376276 C34.8390573,58.7376276 39.0873763,57.5370157 43.0089015,55.1357919 C46.9304267,52.7345682 50.0065506,49.4737347 52.2372733,45.3532916 C54.467996,41.2328484 55.5833573,36.7287778 55.5833573,31.8410797 C55.5833573,26.9817985 54.467996,22.4990405 52.2372733,18.3928057 C50.0065506,14.286571 46.9304267,11.0470502 43.0089015,8.67424326 C39.0873763,6.30143634 34.8390573,5.11503288 30.2639446,5.11503288 C25.7172487,5.11503288 21.4831381,6.28722792 17.5616129,8.63161799 C13.6400877,10.9760081 10.5497553,14.2226331 8.2906158,18.3714931 C6.03147627,22.5203531 4.90190651,27.0102153 4.90190651,31.8410797 Z M23.9980293,35.0379752 L23.9980293,49.4453179 L17.9878656,49.4453179 L17.9878656,13.2564602 L29.7524413,13.2564602 C34.1002192,13.2564602 37.4747201,14.187112 39.8759438,16.0484157 C42.2771676,17.9097193 43.4777795,20.6164242 43.4777795,24.1685304 C43.4777795,27.6638028 41.6591011,30.3349867 38.0217444,32.1820819 C41.4886,33.6029244 43.2362363,36.501443 43.2646531,40.8776378 L43.2646531,43.4777795 C43.2646531,45.9216285 43.5061963,47.6834732 43.9892828,48.7633135 L43.9892828,49.4453179 L37.8086181,49.4453179 C37.4107822,48.4223113 37.2118642,46.5965287 37.2118642,43.9679702 C37.2118642,41.3394116 37.1692389,39.7835891 37.0839884,39.3005026 C36.6293188,36.5724851 34.7680152,35.1516426 31.5000775,35.0379752 L23.9980293,35.0379752 Z M23.9980293,29.5819402 L30.647572,29.5819402 C32.6935852,29.5251065 34.3417624,29.0278116 35.5921038,28.0900556 C36.8424452,27.1522996 37.4676159,25.9161666 37.4676159,24.3816567 C37.4676159,22.3072267 36.9134873,20.8366548 35.8052302,19.9699409 C34.6969731,19.103227 32.722002,18.66987 29.8803171,18.66987 L23.9980293,18.66987 L23.9980293,29.5819402 Z"></path>
            </g>
        </g>
    </g>
</svg>