<?xml version="1.0" encoding="UTF-8"?>
<svg width="981px" height="460px" viewBox="0 0 981 460" version="1.1" xmlns="http://www.w3.org/2000/svg" xmlns:xlink="http://www.w3.org/1999/xlink">
    <title>Logo-tagline-white</title>
    <defs>
        <path d="M0,31.3448551 C0,25.6941092 1.307784,20.4489862 3.92335201,15.6094861 C6.53892001,10.7699859 10.1615516,6.95852985 14.7912469,4.17511791 C19.4209421,1.39170597 24.4212927,0 29.7922987,0 C35.1633046,0 40.1566617,1.39170597 44.77237,4.17511791 C49.3880782,6.95852985 53.0037163,10.7699859 55.6192843,15.6094861 C58.2348523,20.4489862 59.5426363,25.6941092 59.5426363,31.3448551 C59.5426363,36.855731 58.2838068,42.016932 55.7661478,46.8284582 C53.2484887,51.6399844 49.6748116,55.5073884 45.0451164,58.4306703 C40.4154211,61.3539522 35.3311486,62.8155931 29.7922987,62.8155931 C24.2814228,62.8155931 19.2111372,61.3679392 14.581442,58.4726313 C9.95174671,55.5773234 6.36408258,51.7239063 3.81844955,46.9123802 C1.27281652,42.100854 0,36.911679 0,31.3448551 Z M4.82551316,31.3448551 C4.82551316,36.1563812 5.94447274,40.611239 8.18239189,44.7094285 C10.420311,48.8076179 13.4624824,52.0176332 17.3089059,54.3394743 C21.1553295,56.6613154 25.3164604,57.822236 29.7922987,57.822236 C34.296111,57.822236 38.4782224,56.6403349 42.3386329,54.2765328 C46.1990434,51.9127307 49.2272278,48.7027155 51.4231859,44.646487 C53.6191441,40.5902586 54.7171232,36.1563812 54.7171232,31.3448551 C54.7171232,26.5613029 53.6191441,22.1484061 51.4231859,18.1061646 C49.2272278,14.0639231 46.1990434,10.8748884 42.3386329,8.53906025 C38.4782224,6.20323214 34.296111,5.03531808 29.7922987,5.03531808 C25.3164604,5.03531808 21.148336,6.18924515 17.2879254,8.49709927 C13.4275149,10.8049534 10.3853435,14.0009817 8.16141139,18.0851841 C5.93747924,22.1693866 4.82551316,26.5892769 4.82551316,31.3448551 Z M23.624034,34.4919289 L23.624034,48.6747415 L17.7075353,48.6747415 L17.7075353,13.049866 L29.2887669,13.049866 C33.5687872,13.049866 36.8906985,13.9660142 39.2545006,15.7983105 C41.6183027,17.6306068 42.8002037,20.2951293 42.8002037,23.7918779 C42.8002037,27.2326786 41.0098684,29.8622336 37.4291978,31.6805429 C40.8420245,33.0792424 42.5624248,35.9325893 42.5903988,40.2405837 L42.5903988,42.8002037 C42.5903988,45.2059668 42.8281777,46.9403541 43.3037355,48.0033657 L43.3037355,48.6747415 L37.2193928,48.6747415 C36.827757,47.6676779 36.6319391,45.870349 36.6319391,43.282755 C36.6319391,40.695161 36.5899781,39.1635851 36.5060561,38.6880273 C36.0584723,36.0025243 34.226176,34.6038248 31.0091672,34.4919289 L23.624034,34.4919289 Z M23.624034,29.1209229 L30.1699475,29.1209229 C32.1840748,29.0649749 33.8065661,28.5754301 35.0374217,27.6522885 C36.2682772,26.7291468 36.883705,25.5122783 36.883705,24.0016829 C36.883705,21.9595816 36.3382122,20.5119277 35.2472266,19.658721 C34.156241,18.8055143 32.2120487,18.378911 29.4146498,18.378911 L23.624034,18.378911 L23.624034,29.1209229 Z" id="path-1"></path>
    </defs>
    <g id="Logo-tagline-white" stroke="none" stroke-width="1" fill="none" fill-rule="evenodd">
        <g id="armor-logo-white-tagline" transform="translate(0.000000, -0.000000)" fill="#FFFFFF" fill-rule="nonzero">
            <g id="YOU" transform="translate(291.826320, 415.926222)">
                <polygon id="Path" points="0 0.541907998 12.94558 25.1084039 12.94558 42.0881879 21.3752599 42.0881879 21.3752599 25.1084039 34.3208399 0.541907998 24.6267079 0.541907998 17.1604199 16.016392 9.75434397 0.541907998"></polygon>
                <path d="M67.7134115,24.2654359 L67.7134115,18.3646599 C67.7134115,5.53950398 61.1503035,0 51.7572315,0 C42.4243715,0 35.8612636,5.53950398 35.8612636,18.3646599 L35.8612636,24.2654359 C35.8612636,36.9701679 42.4243715,42.6300959 51.7572315,42.6300959 C61.1503035,42.6300959 67.7134115,36.9701679 67.7134115,24.2654359 Z M44.2909435,18.3646599 C44.2909435,10.416676 46.8800595,7.10501598 51.7572315,7.10501598 C56.6344035,7.10501598 59.2837315,10.416676 59.2837315,18.3646599 L59.2837315,24.2654359 C59.2837315,32.2134199 56.6344035,35.5250799 51.7572315,35.5250799 C46.8800595,35.5250799 44.2909435,32.2134199 44.2909435,24.2654359 L44.2909435,18.3646599 Z" id="Shape"></path>
                <path d="M98.9304568,1.98558967 L98.9304568,26.7327216 C98.9304568,33.8377376 96.5821889,36.9687616 91.4039569,36.9687616 C86.2257249,36.9687616 83.8774569,33.8377376 83.8774569,26.7327216 L83.8774569,1.98558967 L75.4477771,1.98558967 L75.4477771,26.7327216 C75.4477771,38.9557576 82.1915209,44.0737776 91.4039569,44.0737776 C100.616393,44.0737776 107.360137,38.9557576 107.360137,26.6725096 L107.360137,1.98558967 L98.9304568,1.98558967 Z" id="Path"></path>
            </g>
            <g id="AND" transform="translate(418.968976, 416.468130)">
                <path d="M9.03179997,41.5462799 L11.560704,33.6585079 L25.4696759,33.6585079 L27.9985799,41.5462799 L36.9701679,41.5462799 L22.5192879,0 L14.45088,0 L0,41.5462799 L9.03179997,41.5462799 Z M18.4850839,11.921976 L23.1816199,26.5534919 L13.788548,26.5534919 L18.4850839,11.921976 Z" id="Shape"></path>
                <polygon id="Path" points="67.2568038 0 67.2568038 26.0717959 50.9995638 0 44.0149719 0 44.0149719 41.5462799 52.0231678 41.5462799 52.0231678 15.835756 68.2201958 41.5462799 75.2649998 41.5462799 75.2649998 0"></polygon>
                <path d="M101.397008,41.5462799 C110.79008,41.5462799 117.353188,36.6691079 117.353188,23.4826799 L117.353188,18.0635999 C117.353188,4.81695999 110.79008,0 101.397008,0 L86.6450677,0 L86.6450677,41.5462799 L101.397008,41.5462799 Z M101.397008,34.4412639 L95.0747477,34.4412639 L95.0747477,7.16522798 L101.397008,7.16522798 C106.996724,7.16522798 108.923508,10.898372 108.923508,18.0635999 L108.923508,23.4826799 C108.923508,30.6479079 106.996724,34.4412639 101.397008,34.4412639 Z" id="Shape"></path>
            </g>
            <g id="THE" transform="translate(558.199021, 416.468130)">
                <polygon id="Path" points="0 0 0 7.16522798 11.44028 7.16522798 11.44028 41.5462799 19.8699599 41.5462799 19.8699599 7.16522798 31.3102399 7.16522798 31.3102399 0"></polygon>
                <polygon id="Path" points="47.4470559 0 39.0173759 0 39.0173759 41.5462799 47.4470559 41.5462799 47.4470559 23.6031039 61.8377238 23.6031039 61.8377238 41.5462799 70.2674038 41.5462799 70.2674038 0 61.8377238 0 61.8377238 16.498088 47.4470559 16.498088"></polygon>
                <polygon id="Path" points="81.6474718 0 81.6474718 41.5462799 107.538632 41.5462799 107.538632 34.4412639 90.0771517 34.4412639 90.0771517 23.6031039 105.732272 23.6031039 105.732272 16.498088 90.0771517 16.498088 90.0771517 7.16522798 107.538632 7.16522798 107.538632 0"></polygon>
            </g>
            <g id="THREAT" transform="translate(682.265847, 416.468130)">
                <polygon id="Path" points="0 0 0 7.16522798 11.44028 7.16522798 11.44028 41.5462799 19.8699599 41.5462799 19.8699599 7.16522798 31.3102399 7.16522798 31.3102399 0"></polygon>
                <polygon id="Path" points="47.4470559 0 39.0173759 0 39.0173759 41.5462799 47.4470559 41.5462799 47.4470559 23.6031039 61.8377238 23.6031039 61.8377238 41.5462799 70.2674038 41.5462799 70.2674038 0 61.8377238 0 61.8377238 16.498088 47.4470559 16.498088"></polygon>
                <path d="M113.559832,41.5462799 L104.949516,23.8439519 C109.465416,21.9773799 112.054532,18.3044479 112.054532,12.704732 C112.054532,4.27505199 106.093544,0 96.5198357,0 L81.6474718,0 L81.6474718,41.5462799 L90.0771517,41.5462799 L90.0771517,25.2288279 L96.8208957,25.2288279 L104.287184,41.5462799 L113.559832,41.5462799 Z M90.0771517,18.1238119 L90.0771517,7.16522798 L95.7370797,7.16522798 C100.734676,7.16522798 103.624852,8.36946798 103.624852,12.704732 C103.624852,17.0399959 100.734676,18.1238119 95.7370797,18.1238119 L90.0771517,18.1238119 Z" id="Shape"></path>
                <polygon id="Path" points="121.9293 0 121.9293 41.5462799 147.82046 41.5462799 147.82046 34.4412639 130.35898 34.4412639 130.35898 23.6031039 146.0141 23.6031039 146.0141 16.498088 130.35898 16.498088 130.35898 7.16522798 147.82046 7.16522798 147.82046 0"></polygon>
                <path d="M161.488584,41.5462799 L164.017488,33.6585079 L177.926459,33.6585079 L180.455363,41.5462799 L189.426951,41.5462799 L174.976071,0 L166.907664,0 L152.456784,41.5462799 L161.488584,41.5462799 Z M170.941867,11.921976 L175.638403,26.5534919 L166.245332,26.5534919 L170.941867,11.921976 Z" id="Shape"></path>
                <polygon id="Path" points="190.631191 0 190.631191 7.16522798 202.071471 7.16522798 202.071471 41.5462799 210.501151 41.5462799 210.501151 7.16522798 221.941431 7.16522798 221.941431 0"></polygon>
            </g>
            <g id="BETWEEN" transform="translate(0.130532, 416.468130)">
                <path d="M0,0 L0,41.5462799 L15.233636,41.5462799 C26.1922199,41.5462799 30.4070599,36.0669879 30.4070599,29.6243039 C30.4070599,24.4460719 27.8781559,21.3150479 23.6031039,19.7495359 C26.9147639,18.1238119 29.0823959,15.173424 29.0823959,10.898372 C29.0823959,3.49229599 23.7235279,0 13.908972,0 L0,0 Z M8.42967998,23.5428919 L13.728336,23.5428919 C19.3882639,23.5428919 21.9773799,25.0481919 21.9773799,28.9619719 C21.9773799,32.5144799 19.5688999,34.4412639 14.511092,34.4412639 L8.42967998,34.4412639 L8.42967998,23.5428919 Z M8.42967998,7.10501598 L13.126216,7.10501598 C19.2076279,7.10501598 20.6527159,8.79095197 20.6527159,11.681128 C20.6527159,14.631516 18.6657199,16.437876 14.029396,16.437876 L8.42967998,16.437876 L8.42967998,7.10501598 Z" id="Shape"></path>
                <polygon id="Path" points="39.6320441 0 39.6320441 41.5462799 65.523204 41.5462799 65.523204 34.4412639 48.061724 34.4412639 48.061724 23.6031039 63.716844 23.6031039 63.716844 16.498088 48.061724 16.498088 48.061724 7.16522798 65.523204 7.16522798 65.523204 0"></polygon>
                <polygon id="Path" points="70.8946202 0 70.8946202 7.16522798 82.3349001 7.16522798 82.3349001 41.5462799 90.7645801 41.5462799 90.7645801 7.16522798 102.20486 7.16522798 102.20486 0"></polygon>
                <polygon id="Path" points="132.564256 12.94558 141.355208 41.5462799 149.423616 41.5462799 158.997324 0 149.905312 0 144.42602 27.5168839 136.2974 0 128.710688 0 120.822916 27.3362479 115.283412 0 106.251612 0 115.765108 41.5462799 123.773304 41.5462799"></polygon>
                <polygon id="Path" points="166.596584 0 166.596584 41.5462799 192.487744 41.5462799 192.487744 34.4412639 175.026264 34.4412639 175.026264 23.6031039 190.681384 23.6031039 190.681384 16.498088 175.026264 16.498088 175.026264 7.16522798 192.487744 7.16522798 192.487744 0"></polygon>
                <polygon id="Path" points="201.47188 0 201.47188 41.5462799 227.36304 41.5462799 227.36304 34.4412639 209.90156 34.4412639 209.90156 23.6031039 225.55668 23.6031039 225.55668 16.498088 209.90156 16.498088 209.90156 7.16522798 227.36304 7.16522798 227.36304 0"></polygon>
                <polygon id="Path" points="259.589008 0 259.589008 26.0717959 243.331768 0 236.347176 0 236.347176 41.5462799 244.355372 41.5462799 244.355372 15.835756 260.5524 41.5462799 267.597204 41.5462799 267.597204 0"></polygon>
            </g>
        </g>
        <g id="Armor-trademarked-white-Copy" transform="translate(0.000000, 0.033921)" fill="#FFFFFF" fill-rule="nonzero">
            <g id="armor-logo-orange-copy">
                <path d="M460.940151,0 L460.940151,185.855013 L460.940151,186.347997 L460.940151,186.840981 L495.449039,145.923299 L513.689451,145.923299 L513.689451,231.702536 L495.449039,231.702536 L495.449039,182.404125 L495.942024,170.079521 L495.942024,169.586537 L460.940151,210.997204 L460.940151,211.490186 L460.940151,211.983171 L460.940151,378.118819 L907.583763,378.118819 L907.583763,0 L460.940151,0 Z M441.713771,211.983171 L441.713771,210.997204 L407.204882,169.586537 L406.711898,169.093553 L407.204882,182.404125 L407.204882,231.702536 L388.96447,231.702536 L388.96447,145.923299 L407.204882,145.923299 L441.713771,186.840981 L441.713771,186.347997 L441.713771,185.855013 L441.713771,0 L0,0 L0,377.625835 L441.713771,377.625835 L441.713771,211.983171 Z M214.448091,231.702536 L201.13752,207.546314 L200.151553,207.546314 L199.658568,207.546314 L195.221712,207.546314 L169.093553,207.546314 L177.967267,190.784853 L189.798886,190.784853 L192.263807,190.784853 L175.995331,161.205807 L175.995331,160.712823 L157.261934,194.235743 L136.556601,231.702536 L115.851268,231.702536 L165.14968,145.430315 L186.347997,145.430315 L235.646408,231.702536 L214.448091,231.702536 L214.448091,231.702536 Z M335.722185,231.702536 L300.227329,200.644537 L300.227329,183.883076 L327.834439,183.883076 C337.201138,183.883076 342.130979,180.432187 342.130979,173.037426 C342.130979,165.642664 337.201138,162.191775 327.834439,162.191775 L276.564091,162.191775 L276.564091,231.702536 L258.323679,231.702536 L258.323679,145.923299 L326.848472,145.923299 C354.455582,145.923299 359.878407,160.712823 359.878407,173.53041 C359.878407,195.714694 342.130979,200.644537 326.848472,200.644537 L325.369518,200.644537 L363.329296,232.195521 L335.722185,231.702536 Z M764.618369,231.702536 L729.123512,200.644537 L729.123512,183.883076 L756.730623,183.883076 C766.097321,183.883076 771.027162,180.432187 771.027162,173.037426 C771.027162,165.642664 766.097321,162.191775 756.730623,162.191775 L705.460274,162.191775 L705.460274,231.702536 L687.219862,231.702536 L687.219862,145.923299 L755.744654,145.923299 C783.351766,145.923299 788.774591,160.712823 788.774591,173.53041 C788.774591,195.714694 771.027162,200.644537 755.744654,200.644537 L754.265703,200.644537 L792.225479,232.195521 L764.618369,231.702536 Z M643.83726,220.856886 C633.484593,229.237616 618.695069,233.674472 600.454656,233.674472 C582.214244,233.674472 567.424721,229.237616 557.072055,220.856886 C547.705356,212.96914 542.28253,201.630504 542.28253,188.812917 C542.28253,175.995331 547.212373,164.656696 557.072055,156.76895 C567.424721,148.38822 582.214244,143.951363 600.454656,143.951363 C618.695069,143.951363 633.484593,148.38822 643.83726,156.76895 C653.203957,164.656696 658.626783,175.995331 658.626783,188.812917 C658.626783,201.630504 653.203957,212.96914 643.83726,220.856886 Z M600.454656,160.712823 C575.312467,160.712823 561.015927,171.065489 561.015927,188.812917 C561.015927,206.560345 575.312467,216.913012 600.454656,216.913012 C625.596848,216.913012 639.893386,206.560345 639.893386,188.812917 C639.893386,171.065489 625.596848,160.712823 600.454656,160.712823 Z" id="logo"></path>
            </g>
            <g id="Shape" transform="translate(920.704942, 316.184407)">
                <use xlink:href="#path-1"></use>
                <use xlink:href="#path-1"></use>
            </g>
        </g>
    </g>
</svg>